<svg width="178" height="24" viewBox="0 0 178 24" fill="none" xmlns="http://www.w3.org/2000/svg">
<path d="M10.6451 14.7637L5.19051 18.7635C4.53633 19.1996 4.02671 19.4906 3.37253 19.4906C2.06357 19.4906 0.972656 18.3268 0.972656 17.0197C0.972656 15.9269 1.84551 15.1269 2.64547 14.7637L9.04514 12L2.64547 9.16339C1.7757 8.80016 0.972656 8.00021 0.972656 6.9093C0.972656 5.60033 2.13646 4.50942 3.44357 4.50942C4.09836 4.50942 4.53448 4.72748 5.18866 5.23649L10.6432 9.23628L9.91799 2.76372C9.69993 1.23546 10.7179 0 12.1727 0C13.6274 0 14.6436 1.1638 14.4274 2.69083L13.6979 9.23628L19.1524 5.23649C19.8091 4.72748 20.3181 4.50942 20.9729 4.50942C21.6076 4.51506 22.2147 4.76972 22.6636 5.21856C23.1124 5.66741 23.3671 6.27456 23.3727 6.9093C23.3727 8.0731 22.5728 8.80017 21.6999 9.16401L15.2996 12L21.6999 14.7637C22.5728 15.1269 23.3727 15.9269 23.3727 17.0907C23.3727 18.3997 22.2089 19.4906 20.9018 19.4906C20.3199 19.4906 19.8109 19.1996 19.1561 18.7635L13.6979 14.7637L14.4249 21.2363C14.643 22.7633 13.625 24 12.1702 24C10.7155 24 9.69931 22.8362 9.91552 21.3092L10.6451 14.7637Z" fill="black"/>
<path d="M45.2662 16.1549C44.9243 16.1535 44.5938 16.278 44.3377 16.5046C43.0689 17.5754 41.8216 18.1727 39.9802 18.1727C36.6439 18.1727 34.2299 15.409 34.2299 11.983V11.9551C34.2299 8.55078 36.6687 5.80563 39.9802 5.80563C41.5136 5.80121 42.9963 6.35449 44.1521 7.36235C44.3776 7.52811 44.6442 7.62892 44.9229 7.65384C45.2017 7.67877 45.4819 7.62686 45.7333 7.50374C45.9846 7.38062 46.1974 7.19101 46.3486 6.95548C46.4998 6.71995 46.5835 6.44751 46.5908 6.16773C46.5919 5.93221 46.5386 5.69961 46.4349 5.4881C46.3313 5.27658 46.1803 5.09187 45.9935 4.94836C44.4739 3.77541 42.7068 2.98003 40.0049 2.98003C34.7437 2.98003 31.0298 7.04048 31.0298 11.9954V12.0449C31.0298 17.0493 34.8149 21.02 39.8935 21.02C42.7068 21.02 44.573 20.1225 46.2163 18.6803C46.3718 18.543 46.4966 18.3745 46.5825 18.1857C46.6683 17.9969 46.7133 17.7921 46.7146 17.5847C46.7073 17.2045 46.5518 16.8423 46.2812 16.5751C46.0107 16.308 45.6464 16.1572 45.2662 16.1549ZM56.6739 10.5996C53.3128 9.78872 52.5175 9.20689 52.5175 7.86062V7.8111C52.5175 6.66601 53.5635 5.74374 55.3555 5.74374C56.7265 5.74374 58.0201 6.19249 59.3788 7.06215C59.6174 7.21044 59.8932 7.28773 60.1742 7.28498C60.3627 7.28785 60.5499 7.25325 60.7249 7.18318C60.8999 7.11312 61.0593 7.00898 61.1937 6.87683C61.3282 6.74467 61.4351 6.58713 61.5082 6.41334C61.5812 6.23954 61.6191 6.05297 61.6195 5.86444C61.6253 5.61997 61.5662 5.37832 61.4482 5.16412C61.3302 4.94992 61.1576 4.77082 60.9479 4.64506C59.3099 3.55021 57.3746 2.98615 55.405 3.02954C51.9449 3.02954 49.4535 5.09691 49.4535 8.08655V8.13607C49.4535 11.3485 51.5457 12.4441 55.2533 13.3416C58.4905 14.0875 59.1931 14.7591 59.1931 16.0032V16.0527C59.1931 17.3464 57.9985 18.2439 56.0982 18.2439C54.3106 18.2426 52.5814 17.6077 51.2176 16.452C51.0002 16.2975 50.7452 16.2045 50.4794 16.1829C50.2136 16.1612 49.9469 16.2117 49.7073 16.3289C49.4678 16.4461 49.2643 16.6258 49.1183 16.849C48.9724 17.0722 48.8893 17.3306 48.8779 17.5971C48.8781 17.8253 48.9326 18.0501 49.037 18.253C49.1415 18.4559 49.2927 18.631 49.4783 18.7638C51.3635 20.1903 53.663 20.9619 56.027 20.9612C59.6883 20.9612 62.2508 19.0176 62.2508 15.7556V15.7061C62.2508 12.8155 60.3598 11.4971 56.6739 10.5996ZM72.111 10.5996C68.75 9.8042 67.9546 9.20379 67.9546 7.86062V7.8111C67.9546 6.66601 69.0007 5.74374 70.7926 5.74374C72.1605 5.74374 73.4573 6.19249 74.8159 7.06215C75.0545 7.21044 75.3304 7.28773 75.6113 7.28498C75.7998 7.28785 75.987 7.25325 76.1621 7.18318C76.3371 7.11312 76.4965 7.00898 76.6309 6.87683C76.7654 6.74467 76.8722 6.58713 76.9453 6.41334C77.0184 6.23954 77.0562 6.05297 77.0566 5.86444C77.0624 5.61997 77.0034 5.37832 76.8854 5.16412C76.7674 4.94992 76.5948 4.77082 76.385 4.64506C74.7471 3.55021 72.8118 2.98615 70.8421 3.02954C67.3821 3.02954 64.8907 5.09691 64.8907 8.08345V8.13297C64.8907 11.3454 66.9828 12.441 70.6905 13.3385C73.9277 14.0844 74.6241 14.7591 74.6241 16.0032V16.0527C74.6241 17.3464 73.4294 18.2439 71.5292 18.2439C69.7416 18.2426 68.0124 17.6077 66.6486 16.452C66.4312 16.2975 66.1762 16.2045 65.9104 16.1829C65.6446 16.1612 65.3778 16.2117 65.1383 16.3289C64.8988 16.4461 64.6953 16.6258 64.5493 16.849C64.4033 17.0722 64.3203 17.3306 64.3089 17.5971C64.3098 17.8258 64.3653 18.051 64.4708 18.254C64.5763 18.4569 64.7288 18.6317 64.9155 18.7638C66.8014 20.1881 69.1009 20.9575 71.4642 20.955C75.1254 20.955 77.688 19.0114 77.688 15.7494V15.6999C77.688 12.8155 75.797 11.4971 72.111 10.5996ZM86.2298 11.5961H81.5473C81.1541 11.5961 80.777 11.7523 80.499 12.0303C80.221 12.3083 80.0648 12.6854 80.0648 13.0786C80.0648 13.4717 80.221 13.8488 80.499 14.1268C80.777 14.4048 81.1541 14.561 81.5473 14.561H86.2267C86.6199 14.561 86.9969 14.4048 87.2749 14.1268C87.553 13.8488 87.7091 13.4717 87.7091 13.0786C87.7091 12.6854 87.553 12.3083 87.2749 12.0303C86.9969 11.7523 86.6199 11.5961 86.2267 11.5961H86.2298ZM100.355 3.28951H88.7645C88.3996 3.30656 88.0553 3.4635 87.8031 3.72775C87.5509 3.99199 87.4102 4.34323 87.4102 4.70851C87.4102 5.07378 87.5509 5.42502 87.8031 5.68926C88.0553 5.95351 88.3996 6.11046 88.7645 6.1275H92.9983V19.3178C92.9983 19.7282 93.1613 20.1218 93.4515 20.412C93.7417 20.7022 94.1353 20.8652 94.5457 20.8652C94.9561 20.8652 95.3497 20.7022 95.6399 20.412C95.9301 20.1218 96.0931 19.7282 96.0931 19.3178V6.11822H100.355C100.707 6.08522 101.034 5.92195 101.273 5.66036C101.511 5.39877 101.643 5.05768 101.643 4.70386C101.643 4.35005 101.511 4.00896 101.273 3.74737C101.034 3.48578 100.707 3.32251 100.355 3.28951ZM112.381 3.28951H106.145C105.941 3.28573 105.738 3.32318 105.549 3.3996C105.359 3.47603 105.187 3.58987 105.043 3.73433C104.898 3.87878 104.784 4.05087 104.708 4.24032C104.631 4.42978 104.594 4.63269 104.598 4.83694V19.3178C104.616 19.7118 104.784 20.0838 105.07 20.3563C105.355 20.6288 105.734 20.7809 106.128 20.7809C106.523 20.7809 106.902 20.6288 107.187 20.3563C107.472 20.0838 107.641 19.7118 107.659 19.3178V14.6353H111.518L115.752 20.0389C115.913 20.2878 116.134 20.4917 116.396 20.6313C116.657 20.771 116.95 20.8419 117.246 20.8374C117.436 20.8407 117.625 20.8065 117.802 20.7369C117.978 20.6673 118.139 20.5635 118.276 20.4316C118.412 20.2997 118.521 20.1422 118.597 19.9681C118.673 19.794 118.713 19.6066 118.717 19.4168C118.7 18.9788 118.523 18.5621 118.218 18.247L114.882 14.038C117.222 13.3169 118.84 11.6209 118.84 8.83241V8.78289C118.859 8.09212 118.741 7.4045 118.493 6.75931C118.246 6.11411 117.874 5.52399 117.398 5.02263C116.278 3.92705 114.56 3.28951 112.369 3.28951H112.381ZM115.742 9.0181C115.742 10.7853 114.347 11.9304 112.159 11.9304H107.662V6.07489H112.115C114.381 6.07489 115.727 7.09619 115.727 8.96239L115.742 9.0181ZM124.099 3.16572C123.896 3.16117 123.695 3.19716 123.507 3.27156C123.319 3.34597 123.148 3.45728 123.004 3.59892C122.86 3.74057 122.745 3.90967 122.668 4.09626C122.59 4.28285 122.55 4.48314 122.551 4.6853V19.3178C122.569 19.7118 122.738 20.0838 123.023 20.3563C123.308 20.6288 123.687 20.7809 124.081 20.7809C124.476 20.7809 124.855 20.6288 125.14 20.3563C125.425 20.0838 125.594 19.7118 125.612 19.3178V4.67292C125.613 4.47117 125.574 4.27121 125.497 4.08485C125.419 3.89848 125.306 3.72949 125.162 3.58784C125.018 3.4462 124.848 3.33477 124.66 3.26014C124.473 3.18552 124.272 3.1492 124.071 3.15334L124.099 3.16572ZM143.494 16.1641C143.152 16.1628 142.822 16.2873 142.566 16.5139C141.297 17.5847 140.049 18.182 138.208 18.182C134.872 18.182 132.458 15.4183 132.458 11.9923V11.9551C132.458 8.55078 134.896 5.80563 138.208 5.80563C139.739 5.80764 141.217 6.3652 142.367 7.37473C142.593 7.54048 142.86 7.6413 143.138 7.66622C143.417 7.69115 143.697 7.63924 143.949 7.51612C144.2 7.393 144.413 7.20339 144.564 6.96786C144.715 6.73233 144.799 6.45989 144.806 6.18011C144.807 5.94459 144.754 5.71199 144.65 5.50048C144.547 5.28896 144.396 5.10425 144.209 4.96074C142.668 3.77541 140.897 2.98003 138.211 2.98003C132.931 2.98003 129.236 7.04048 129.236 11.9954V12.0449C129.236 17.0493 133.021 21.02 138.1 21.02C140.913 21.02 142.779 20.1225 144.422 18.6803C144.58 18.5416 144.705 18.3711 144.791 18.18C144.877 17.989 144.921 17.7818 144.921 17.5723C144.91 17.1932 144.753 16.8332 144.481 16.5686C144.209 16.3039 143.845 16.1555 143.466 16.1549L143.494 16.1641ZM156.183 10.9586L161.611 5.72826C161.781 5.58957 161.919 5.41499 162.013 5.21703C162.108 5.01906 162.158 4.80261 162.159 4.58316C162.163 4.39221 162.128 4.20247 162.056 4.02558C161.984 3.84869 161.876 3.68838 161.74 3.5545C161.604 3.42061 161.442 3.31596 161.264 3.24698C161.086 3.178 160.895 3.14613 160.705 3.15334C160.464 3.1477 160.225 3.19622 160.005 3.29532C159.785 3.39441 159.591 3.54155 159.436 3.72589L151.185 12.0449V4.67292C151.185 4.26662 151.023 3.87696 150.736 3.58966C150.449 3.30236 150.059 3.14096 149.653 3.14096C149.246 3.14096 148.857 3.30236 148.57 3.58966C148.282 3.87696 148.121 4.26662 148.121 4.67292V19.3178C148.121 19.7241 148.282 20.1138 148.57 20.4011C148.857 20.6884 149.246 20.8498 149.653 20.8498C150.059 20.8498 150.449 20.6884 150.736 20.4011C151.023 20.1138 151.185 19.7241 151.185 19.3178V15.7061L154.023 12.9671L159.624 20.1132C159.763 20.3319 159.953 20.5126 160.179 20.6386C160.405 20.7645 160.659 20.8318 160.918 20.8343C161.119 20.8414 161.319 20.8079 161.506 20.736C161.694 20.664 161.865 20.555 162.009 20.4155C162.154 20.276 162.269 20.1088 162.347 19.9239C162.425 19.739 162.466 19.5403 162.466 19.3395C162.463 18.9348 162.312 18.5451 162.042 18.2439L156.183 10.9586ZM172.214 10.6089C168.835 9.78872 168.039 9.20689 168.039 7.86062V7.8111C168.039 6.66601 169.085 5.74374 170.877 5.74374C172.245 5.74374 173.542 6.19249 174.901 7.06215C175.139 7.21044 175.415 7.28773 175.696 7.28498C175.885 7.28785 176.072 7.25325 176.247 7.18318C176.422 7.11312 176.581 7.00898 176.716 6.87683C176.85 6.74467 176.957 6.58713 177.03 6.41334C177.103 6.23954 177.141 6.05297 177.141 5.86444C177.147 5.61997 177.088 5.37832 176.97 5.16412C176.852 4.94992 176.679 4.77082 176.47 4.64506C174.829 3.54837 172.89 2.98424 170.918 3.02954C167.467 3.02954 164.975 5.09691 164.975 8.08655V8.13607C164.975 11.3485 167.068 12.4441 170.775 13.3416C174.012 14.0875 174.709 14.7622 174.709 16.0063V16.0558C174.709 17.3495 173.514 18.247 171.614 18.247C169.826 18.2457 168.097 17.6108 166.733 16.4551C166.516 16.3006 166.261 16.2076 165.995 16.186C165.729 16.1643 165.463 16.2148 165.223 16.332C164.984 16.4492 164.78 16.6289 164.634 16.8521C164.488 17.0753 164.405 17.3337 164.394 17.6002C164.395 17.8284 164.451 18.053 164.556 18.2553C164.662 18.4577 164.814 18.632 165 18.7638C166.882 20.1877 169.177 20.9592 171.537 20.9612C175.198 20.9612 177.76 19.0176 177.76 15.7556V15.7061C177.773 12.8155 175.869 11.4971 172.196 10.5996L172.214 10.6089Z" fill="black"/>
</svg>
