<svg width="129" height="30" viewBox="0 0 129 30" fill="none" xmlns="http://www.w3.org/2000/svg">
<path d="M0.740234 0V30H33.2368V0H0.740234ZM31.0889 15.127C30.9484 15.3755 30.7963 15.6105 30.6617 15.859C30.5736 16.039 30.4257 16.1884 30.2394 16.2855C30.0532 16.3827 29.8382 16.4225 29.6257 16.3992C29.4621 16.3941 29.3017 16.4419 29.1722 16.5343C28.7713 16.7774 28.3645 17.0178 27.949 17.2447C27.6666 17.3879 27.3529 17.4704 27.0312 17.4863C26.7095 17.5022 26.3881 17.4511 26.0908 17.3366C25.0984 16.9823 24.0441 16.7992 22.9801 16.7963C22.4527 16.7803 21.9284 16.8771 21.4482 17.0791C20.968 17.281 20.5449 17.5827 20.2118 17.9606C19.9375 18.3131 19.727 18.7045 19.5885 19.1194C19.2257 19.9487 18.9155 24.8947 18.9155 26.1561C18.9155 26.1561 13.7593 25.2323 8.92217 20.6618L10.1834 17.604H6.2329L9.08897 14.8082H4.17278L7.03178 12.0151H2.36433L7.56144 6.92869C9.15494 5.47255 11.1595 4.4589 13.3467 4.00324C15.4244 3.67369 15.9599 3.86008 17.2416 4.21124L17.9527 4.40843L18.2015 4.47596L19.1086 4.73258C19.7026 4.88098 20.3275 4.88934 20.9259 4.75689C21.7387 4.56251 22.6011 4.659 23.34 5.02701C23.6689 5.20041 23.9489 5.44289 24.1574 5.73479C24.3658 6.0267 24.4969 6.35983 24.5398 6.70719C24.5779 7.01345 24.6933 7.30719 24.8768 7.56477C25.0603 7.82234 25.3067 8.03656 25.5962 8.19017C26.4692 8.63158 27.3817 9.00301 28.3235 9.30038C28.9878 9.53269 29.6521 9.79741 30.3105 10.0351C30.6375 10.1496 30.9262 10.3415 31.1474 10.5916C31.3356 10.8003 31.4481 11.0582 31.4693 11.329C31.5103 11.8693 31.5776 12.4095 31.6068 12.9498C31.6528 13.7029 31.4736 14.4533 31.0889 15.1189V15.127Z" fill="black"/>
<path d="M92.3268 8.44702C92.072 8.4375 91.8185 8.48482 91.5877 8.58498C91.357 8.68514 91.1558 8.83518 91.0012 9.02239C90.6968 9.35964 90.5219 9.7804 90.5038 10.219V10.8565C90.4914 11.3029 90.6701 11.7358 91.0012 12.0613C91.1607 12.2216 91.3555 12.3484 91.5725 12.4332C91.7896 12.518 92.0239 12.5588 92.2595 12.5529C92.521 12.5676 92.7821 12.5187 93.0168 12.4111C93.2514 12.3035 93.4514 12.141 93.5968 11.9397C93.9079 11.4936 94.0651 10.9709 94.0474 10.4405C94.0879 9.90503 93.914 9.37443 93.5587 8.94945C93.4067 8.78651 93.2173 8.65687 93.0042 8.56996C92.7911 8.48305 92.5597 8.44106 92.3268 8.44702Z" fill="black"/>
<path d="M112.009 8.4225C111.746 8.40835 111.483 8.45388 111.243 8.55511C111.003 8.65635 110.794 8.81021 110.634 9.00326C110.3 9.43467 110.132 9.95665 110.157 10.4862C110.139 11.0096 110.301 11.5247 110.619 11.9584C110.774 12.159 110.981 12.32 111.222 12.4263C111.462 12.5326 111.728 12.5807 111.994 12.5662C112.26 12.5785 112.526 12.5308 112.767 12.4272C113.009 12.3237 113.22 12.1674 113.381 11.9719C113.724 11.5338 113.898 11.0019 113.873 10.4619C113.903 9.92408 113.721 9.39432 113.361 8.97085C113.195 8.79073 112.988 8.64774 112.753 8.55273C112.519 8.45773 112.265 8.41319 112.009 8.4225Z" fill="black"/>
<path d="M86.2848 8.91387C86.1582 8.73821 85.9827 8.59731 85.7767 8.50603C85.5707 8.41475 85.3418 8.37647 85.1142 8.39522C84.8976 8.38153 84.6806 8.41695 84.4822 8.4984C84.2837 8.57986 84.1099 8.70487 83.9758 8.86254C83.7142 9.19251 83.5544 9.58181 83.5135 9.98897H86.5803C86.6146 9.61019 86.5106 9.23171 86.2848 8.91387Z" fill="black"/>
<path d="M103.336 6.05054H101.656V12.3471H103.33C104.397 12.3471 105.211 12.077 105.773 11.5368C106.335 10.9965 106.621 10.2177 106.631 9.20019C106.631 8.22234 106.35 7.45248 105.788 6.89063C105.226 6.32877 104.409 6.04874 103.336 6.05054Z" fill="black"/>
<path d="M34.2194 0V19.1248H128.738V0H34.2194ZM46.5712 6.06429H45.4007V12.3312H46.4776V13.3387H43.1855V12.3312H44.1541V7.68233H44.0985L41.2805 12.8471H40.6601L37.7338 7.6067H37.6782V12.3312H38.6878V13.3387H35.425V12.3312H36.5019V6.06429H35.3313V5.05673H37.57L40.982 11.1507H41.0376L44.3092 5.05673H46.5624L46.5712 6.06429ZM55.0925 12.188C54.2907 12.9588 53.1807 13.3441 51.7624 13.3441H47.6481V12.3474H48.7396V6.05078H47.6481V5.05673H51.6951C53.1758 5.05673 54.3132 5.443 55.1072 6.21556C55.9058 7.02521 56.3264 8.09287 56.2777 9.18693C56.3052 9.73468 56.2146 10.282 56.0112 10.7972C55.8077 11.3124 55.4955 11.7851 55.0925 12.188ZM66.4728 6.06429H65.396V13.3576H64.6351L59.5405 7.19881H59.4849V12.3312H60.8514V13.3387H57.2755V12.3312H58.2968V6.06429H57.1263V5.05673H59.1981L64.1435 11.0238H64.1991V6.06429H62.8589V5.05673H66.4641L66.4728 6.06429ZM79.29 13.3576H78.3214L76.0301 7.09616H75.9745L73.7651 13.3576H72.7848L70.2156 6.06429H69.4401V5.05673H72.6853V6.06429H71.5529L73.2706 11.4425H73.3379L75.2722 6.06429H74.4411V5.05673H77.66V6.06429H76.8465L78.7808 11.4938H78.8481L80.437 6.06429H79.2226V5.05673H82.4416V6.06429H81.6983L79.29 13.3576ZM87.106 12.9498C86.5701 13.3317 85.9035 13.5234 85.2274 13.49C84.8308 13.5059 84.4347 13.4487 84.0624 13.3216C83.6901 13.1945 83.349 13.0001 83.059 12.7499C82.5059 12.2582 82.2309 11.5424 82.2309 10.6078C82.1982 9.81518 82.472 9.03769 83.0034 8.41437C83.264 8.1273 83.5929 7.89968 83.9644 7.74927C84.336 7.59887 84.7402 7.52973 85.1454 7.54727C85.5121 7.52835 85.8789 7.58357 86.2201 7.70908C86.5612 7.83459 86.8686 8.02735 87.1207 8.27391C87.5889 8.75812 87.8445 9.38613 87.8376 10.0351C87.8364 10.2792 87.809 10.5226 87.7557 10.7617H83.5126C83.5692 11.9701 84.172 12.5734 85.321 12.5716C85.714 12.5991 86.1032 12.4848 86.4067 12.2528C86.6457 12.0466 86.8154 11.7812 86.8954 11.4884L87.9049 11.6802C87.8247 12.1785 87.5383 12.6287 87.106 12.9363V12.9498ZM94.6471 12.5095C94.2052 13.1578 93.5 13.4846 92.5343 13.4846C91.5686 13.4846 90.8254 13.1361 90.4215 12.4392C90.4215 12.5068 90.3923 12.6607 90.3601 12.8984C90.3279 13.1361 90.3045 13.2874 90.2957 13.3576H89.0725C89.1193 13.0875 89.1632 12.8174 89.2101 12.5284C89.2563 12.2458 89.2797 11.9605 89.2803 11.6748V5.46191H88.2853V4.5705H90.4947V8.79255C90.6818 8.44804 90.9485 8.14561 91.276 7.90654C91.677 7.63605 92.1672 7.50239 92.6631 7.52836C93.02 7.51986 93.3747 7.58254 93.7029 7.71214C94.0312 7.84174 94.3253 8.0352 94.5651 8.27931C95.0626 8.77273 95.3113 9.46966 95.3113 10.3701C95.3142 11.1227 95.0837 11.8603 94.6471 12.4959V12.5095ZM106.759 12.2015C105.957 12.9723 104.848 13.3576 103.432 13.3576H99.3145V12.3474H100.406V6.05078H99.3145V5.05673H103.362C104.842 5.05673 105.98 5.443 106.774 6.21556C107.578 7.02281 108.005 8.09065 107.962 9.18693C107.987 9.73578 107.893 10.2837 107.687 10.799C107.48 11.3142 107.165 11.7863 106.759 12.188V12.2015ZM114.265 12.6553C113.963 12.9338 113.601 13.1514 113.203 13.2941C112.805 13.4369 112.38 13.5018 111.953 13.4846C111.54 13.5028 111.127 13.44 110.743 13.3003C110.358 13.1607 110.009 12.9473 109.72 12.6742C109.156 12.0964 108.862 11.3363 108.901 10.5592C108.88 9.78151 109.159 9.02221 109.688 8.41707C110.213 7.8228 110.993 7.52566 112.029 7.52566C113.065 7.52566 113.845 7.821 114.37 8.41167C114.886 9.00503 115.16 9.74707 115.143 10.5078C115.158 10.8996 115.089 11.2903 114.938 11.6569C114.787 12.0234 114.558 12.3583 114.265 12.6418V12.6553ZM120.881 12.8093C120.472 13.2577 119.819 13.4846 118.926 13.4846C118.541 13.5 118.156 13.4417 117.796 13.3134C117.436 13.1851 117.109 12.9896 116.834 12.7391C116.304 12.242 116.039 11.5298 116.041 10.6024C116.018 9.81871 116.297 9.0529 116.828 8.44138C117.095 8.14687 117.432 7.91353 117.813 7.75977C118.193 7.60602 118.608 7.53604 119.023 7.55538C119.4 7.55409 119.776 7.59767 120.141 7.68503C120.51 7.77297 120.857 7.92417 121.165 8.13074L121.414 9.60832L120.433 9.71097L120.211 8.75473C119.843 8.56757 119.428 8.47433 119.008 8.4846C118.758 8.46914 118.507 8.51464 118.282 8.61655C118.057 8.71847 117.864 8.87323 117.724 9.06537C117.43 9.51686 117.286 10.0383 117.311 10.5646C117.285 11.0799 117.439 11.5894 117.75 12.0178C117.903 12.1984 118.101 12.3419 118.327 12.4361C118.554 12.5302 118.802 12.5721 119.049 12.5581C119.904 12.5581 120.416 12.0989 120.58 11.1804L121.604 11.3722C121.516 11.9008 121.265 12.3949 120.881 12.7958V12.8093ZM126.874 13.0119C126.293 13.3451 125.617 13.5098 124.934 13.4846C124.087 13.5091 123.25 13.3145 122.517 12.9227L122.725 11.5208L123.679 11.6099L123.649 12.3501C123.839 12.438 124.043 12.4981 124.252 12.5284C124.464 12.5626 124.678 12.5798 124.893 12.5797C125.262 12.5847 125.627 12.5156 125.964 12.3771C126.105 12.3289 126.226 12.2418 126.312 12.1278C126.397 12.0137 126.442 11.8782 126.441 11.7396C126.45 11.616 126.418 11.4929 126.349 11.3867C126.28 11.2805 126.177 11.1962 126.055 11.1453C125.75 11.0155 125.427 10.9246 125.095 10.8752C124.712 10.8158 124.331 10.7428 123.954 10.6537C123.601 10.5756 123.274 10.4179 123.003 10.1945C122.865 10.0653 122.758 9.91002 122.691 9.7394C122.624 9.56877 122.598 9.38677 122.614 9.20583C122.614 8.56834 122.871 8.12534 123.38 7.87952C123.886 7.63508 124.448 7.50805 125.019 7.50945C125.422 7.50809 125.824 7.55808 126.213 7.65802C126.566 7.7476 126.906 7.87355 127.228 8.03349L127.366 9.41113L126.4 9.51108L126.26 8.61966C125.888 8.45863 125.482 8.3756 125.072 8.37655C124.779 8.36601 124.49 8.42755 124.232 8.55483C124.118 8.61553 124.026 8.70516 123.967 8.81296C123.907 8.92076 123.882 9.04216 123.895 9.16261C123.889 9.28059 123.922 9.39754 123.99 9.49758C124.058 9.59762 124.158 9.67589 124.276 9.72177C124.575 9.84492 124.891 9.92858 125.215 9.97028C125.592 10.0266 125.965 10.1015 126.333 10.1945C126.683 10.2769 127.006 10.4384 127.272 10.6645C127.408 10.7989 127.512 10.9579 127.577 11.1313C127.643 11.3048 127.668 11.4889 127.653 11.6721C127.661 11.9369 127.594 12.199 127.457 12.432C127.32 12.6649 127.119 12.8603 126.874 12.9984V13.0119Z" fill="black"/>
<path d="M51.6663 6.05068H49.9953V12.3473H51.6663C52.7334 12.3473 53.5489 12.0771 54.1127 11.5369C54.6765 10.9967 54.9574 10.2214 54.9555 9.21113C54.9555 8.23328 54.6745 7.46343 54.1127 6.90157C53.5508 6.33971 52.7354 6.05608 51.6663 6.05068Z" fill="black"/>
<path d="M34.2435 29.9756V19.8244H67.8695V29.9756H34.2435ZM43.4877 27.1879H42.9024V25.3376C42.9217 25.1367 42.8899 24.9344 42.8097 24.7469C42.7294 24.5593 42.6029 24.3916 42.4401 24.2571C42.1471 24.0357 41.7798 23.9154 41.4012 23.9167C41.0911 23.9035 40.7844 23.9817 40.5256 24.14C40.2668 24.2983 40.0692 24.5285 39.9615 24.7973C39.8768 24.5191 39.6799 24.2814 39.4114 24.1328C39.1453 23.9888 38.8419 23.9141 38.5335 23.9167C38.263 23.9036 37.9939 23.9616 37.7577 24.084C37.5215 24.2064 37.3278 24.3882 37.1991 24.6083V24.0113H35.3614V24.8919H35.9466V27.1879H35.3614V28.0604H38.0272V27.1879H37.1903V25.7698C37.179 25.5256 37.2495 25.2841 37.3922 25.0783C37.4657 24.9857 37.5639 24.9122 37.6772 24.8649C37.7905 24.8176 37.9151 24.798 38.0389 24.8081C38.5403 24.8081 38.79 25.135 38.7881 25.7887V28.0604H40.6287V27.1879H40.0434V25.7698C40.0317 25.5263 40.1 25.2852 40.2395 25.0783C40.3115 24.9855 40.4085 24.9118 40.521 24.8644C40.6334 24.817 40.7573 24.7976 40.8804 24.8081C41.3934 24.8081 41.65 25.135 41.65 25.7887V28.0604H43.4877V27.1879ZM46.3789 23.9275C45.5985 23.9275 45.0133 24.14 44.6231 24.565C44.2309 24.9909 44.0225 25.5352 44.0378 26.0939C44.0196 26.3742 44.0669 26.6548 44.1764 26.9168C44.286 27.1787 44.4553 27.4158 44.6728 27.612C45.1273 27.9831 45.72 28.1768 46.3262 28.1523C46.9631 28.1739 47.5849 27.97 48.0644 27.5823C48.2925 27.3885 48.472 27.151 48.5903 26.8864C48.7086 26.6219 48.7628 26.3366 48.7491 26.0507C48.7591 25.505 48.5507 24.9751 48.1639 24.5623C47.7601 24.1409 47.1651 23.9275 46.3789 23.9275ZM46.3496 27.2636C46.1987 27.2699 46.0485 27.2401 45.9137 27.1772C45.7789 27.1143 45.6639 27.0203 45.58 26.9043C45.3974 26.6423 45.3055 26.3351 45.3166 26.0237C45.298 25.7058 45.4016 25.392 45.6092 25.1377C45.7014 25.0339 45.8183 24.9512 45.9507 24.8959C46.0832 24.8406 46.2277 24.8143 46.373 24.819C46.5143 24.8167 46.6546 24.8414 46.785 24.8916C46.9155 24.9418 47.0332 25.0164 47.1309 25.1107C47.3592 25.3588 47.4717 25.6803 47.444 26.0048C47.4664 26.334 47.3629 26.66 47.1514 26.9259C47.0559 27.0364 46.9335 27.1245 46.7942 27.1832C46.6549 27.2419 46.5026 27.2694 46.3496 27.2636ZM53.6653 26.6423L52.6733 26.564L52.4685 27.1906H51.0316L53.4663 24.6137L53.3727 24.0113H49.5129L49.3578 25.4294L50.2825 25.5213L50.4786 24.8838H51.8393L49.4251 27.4581L49.5539 28.0685H53.3961L53.6653 26.6423ZM55.8951 24.0113H54.59V25.4672H55.8951V24.0113ZM55.8951 26.6072H54.59V28.0631H55.8951V26.6072ZM59.8573 21.8827H58.6195L56.7233 28.0631H57.9582L59.8573 21.8827ZM62.3973 21.8827H61.1595L59.2721 28.0631H60.4982L62.3973 21.8827ZM66.7868 27.9632L66.7663 27.3527C66.7147 27.3735 66.6586 27.3828 66.6024 27.3797C66.4005 27.3797 66.3098 27.2744 66.3098 27.0664V25.3133C66.3241 25.1134 66.2832 24.9134 66.1911 24.732C66.099 24.5506 65.9586 24.3938 65.7831 24.276C65.4274 24.0443 65.001 23.9232 64.5657 23.9302C64.2552 23.926 63.9451 23.9532 63.641 24.0113C63.3131 24.0854 62.9914 24.1811 62.6783 24.2976L62.5144 25.2322L63.5064 25.3403L63.6527 24.8838C63.7494 24.8306 63.8571 24.7966 63.9688 24.7838C64.0902 24.7713 64.2123 24.765 64.3345 24.7649C64.6828 24.7649 64.8876 24.8649 64.9461 25.0621C65.0048 25.261 65.0343 25.4663 65.0339 25.6725V25.8076C64.9197 25.7906 64.8043 25.7807 64.6886 25.7779C64.5686 25.7779 64.4516 25.7779 64.3345 25.7779C63.8531 25.7718 63.3749 25.8525 62.927 26.0156C62.7196 26.0935 62.5452 26.2315 62.4301 26.4089C62.3151 26.5862 62.2656 26.7933 62.2891 26.9989C62.2699 27.1706 62.2997 27.3441 62.3757 27.5019C62.4517 27.6597 62.5712 27.7964 62.7222 27.8984C62.9899 28.0695 63.3066 28.1635 63.6322 28.1685C63.9468 28.1824 64.2569 28.0955 64.5101 27.9227C64.723 27.7769 64.9021 27.5932 65.0369 27.3824C65.0361 27.4968 65.0616 27.61 65.1116 27.7146C65.1616 27.8192 65.2351 27.9129 65.3271 27.9894C65.4192 28.066 65.5277 28.1237 65.6456 28.1587C65.7636 28.1938 65.8882 28.2054 66.0113 28.1928C66.2878 28.1789 66.5528 28.0998 66.7868 27.9632ZM64.08 27.3365C64.0065 27.342 63.9326 27.3322 63.8638 27.3079C63.7949 27.2836 63.7328 27.2454 63.682 27.196C63.5982 27.1049 63.5534 26.9887 63.5562 26.8692C63.5436 26.7789 63.561 26.6873 63.6059 26.6063C63.6508 26.5253 63.7212 26.4588 63.8078 26.4154C63.9913 26.3378 64.1913 26.299 64.3931 26.3019C64.4978 26.3015 64.6024 26.3078 64.7062 26.3208L65.0164 26.356C65.0236 26.493 64.9991 26.6298 64.9446 26.7574C64.8901 26.885 64.8069 27.0005 64.7003 27.0961C64.5331 27.2429 64.3106 27.3284 64.08 27.3365Z" fill="black"/>
</svg>
