<svg width="127" height="22" viewBox="0 0 127 22" fill="none" xmlns="http://www.w3.org/2000/svg">
<path d="M61.1709 18.8148C63.4538 18.288 65.7368 16.9709 66.8782 14.0734H56.4295V11.2636H71.3563V12.5807H70.6538C69.7758 17.0587 66.6148 21.6246 59.5904 21.8002L58.0977 20.3075C58.0977 20.3075 56.166 21.1856 55.9904 21.3612C51.1612 19.9563 48.3514 15.4782 48.3514 11.088C48.1758 4.85385 52.9173 0.200195 58.8002 0.200195C62.3124 0.200195 64.7709 1.25385 66.8782 3.18556L65.1221 5.55629C64.2441 4.59044 61.9612 3.00995 58.888 3.00995C54.6734 3.00995 51.1612 6.34654 51.1612 11.088C51.1612 15.0392 54.0587 18.1124 57.3953 18.9026L61.1709 18.8148Z" fill="#8E47EF"/>
<path d="M11.5607 21.8002C5.59001 21.8002 0.760742 16.9709 0.760742 11.0002C0.760742 4.94166 5.59001 0.200195 11.5607 0.200195C17.6193 0.200195 22.3607 5.02946 22.3607 11.088C22.3607 16.9709 17.5315 21.8002 11.5607 21.8002ZM11.5607 3.00995C8.31196 3.00995 5.76562 4.76605 4.53635 7.66361C4.09733 8.71727 3.83391 9.85873 3.83391 11.0002C3.83391 12.1417 4.09733 13.2831 4.53635 14.3368C5.85343 17.2343 8.39977 18.9904 11.5607 18.9904C14.9851 18.9904 17.6193 17.0587 18.8485 13.81C19.1998 12.9319 19.3754 11.966 19.3754 11.0002C19.3754 6.69776 16.1266 3.00995 11.5607 3.00995ZM35.2681 13.1953C34.6534 13.4587 33.951 13.5465 33.2485 13.5465L39.0437 21.2734H35.2681L28.4193 11.6148H28.3315V21.2734H25.3461V0.551415H31.7559C33.6876 0.551415 35.7949 0.902634 37.2876 2.30751C38.6046 3.62459 39.2193 5.46849 39.2193 7.22459C39.2193 10.0343 37.99 12.3173 35.2681 13.1953ZM31.5803 3.36117H28.4193V11.3514H30.5266C33.2485 11.3514 36.2339 10.5612 36.2339 7.31239C36.2339 4.59044 34.0388 3.36117 31.5803 3.36117ZM42.029 21.3612V0.551415H45.1022V21.3612H42.029ZM96.2046 21.3612V3.8002H96.1168L89.0924 21.3612H87.2485L80.2242 3.8002H80.1363V21.3612H77.151V0.551415H81.8924L88.1266 16.4441L94.3607 0.551415H99.1022V21.3612H96.2046ZM102.614 21.3612V0.551415H105.688V21.3612H102.614ZM123.775 18.3758C121.492 20.6587 118.77 21.3612 115.697 21.3612H109.024V0.551415H115.785C119.122 0.551415 122.283 1.60507 124.302 4.41483C125.619 6.25873 126.41 8.71727 126.41 11.088C126.41 13.4587 125.531 16.6197 123.775 18.3758ZM122.81 7.83922C121.58 4.85385 119.034 3.36117 115.785 3.36117H112.097V18.6392H115.697C120.439 18.6392 123.336 15.9173 123.336 11.088C123.424 9.94654 123.161 8.89288 122.81 7.83922ZM69.951 0.551415L55.7266 21.2734C56.7803 21.6246 57.9217 21.8002 59.151 21.8002H59.59L70.5656 4.50263H70.6534V21.3612H73.7266V0.551415H69.951Z" fill="black"/>
</svg>
