<svg width="166" height="38" viewBox="0 0 166 38" fill="none" xmlns="http://www.w3.org/2000/svg">
<path fill-rule="evenodd" clip-rule="evenodd" d="M3.38114 0.5H35.4143C36.8739 0.5 38.0572 1.68325 38.0572 3.14286V34.8571C38.0572 36.3167 36.8739 37.5 35.4143 37.5H3.38114C1.92153 37.5 0.738281 36.3167 0.738281 34.8571V3.14286C0.738281 1.68325 1.92153 0.5 3.38114 0.5ZM21.4486 16.1748V11.1172H17.4411V16.1748L12.5809 14.5723L11.2137 18.2785L15.9506 20.0686L12.9624 24.3712L16.2994 26.6951L19.4435 22.5194L22.6546 26.6951L25.8322 24.3712L22.8784 20.2263L27.5818 18.2785L26.1485 14.5723L21.4486 16.1748Z" fill="#EB191E"/>
<path fill-rule="evenodd" clip-rule="evenodd" d="M60.021 13.6721H55.2088V25.8336H53.4411V13.6721H48.6289V12.1278H60.0214V13.6721H60.021ZM66.2605 12.1278H67.7532L73.4493 25.8336H71.5637L69.9139 21.8183H64.0607L62.4305 25.8336H60.5449L66.2606 12.1278H66.2605ZM69.521 20.4672L67.0068 14.1354L64.4142 20.4672H69.521ZM87.3294 22.3011C87.3294 22.8287 87.2214 23.3114 87.0053 23.7489C86.7893 24.1865 86.4946 24.5597 86.1215 24.8686C85.7483 25.1775 85.3162 25.4156 84.8251 25.5829C84.3341 25.7502 83.807 25.8338 83.244 25.8338H76.6248V12.128H83.5582C84.0427 12.128 84.4814 12.2309 84.8742 12.4368C85.267 12.6428 85.6009 12.9098 85.8759 13.238C86.1509 13.5662 86.3637 13.9394 86.5143 14.3577C86.6649 14.7759 86.7402 15.1974 86.7402 15.6221C86.7402 16.3042 86.5667 16.9348 86.2197 17.5139C85.8727 18.0931 85.3784 18.5242 84.7368 18.8074C85.5355 19.039 86.1673 19.4669 86.6321 20.0911C87.0969 20.7152 87.3294 21.4521 87.3294 22.3014L87.3294 22.3011ZM85.542 21.9922C85.542 21.6833 85.4864 21.3841 85.3751 21.0945C85.2638 20.805 85.1132 20.5508 84.9233 20.332C84.7335 20.1132 84.5076 19.9395 84.2457 19.8108C83.9838 19.6821 83.6958 19.6177 83.3815 19.6177H78.3926V24.328H83.244C83.5713 24.328 83.8725 24.2637 84.1475 24.135C84.4225 24.0063 84.6647 23.8358 84.8742 23.6234C85.0837 23.411 85.2474 23.1633 85.3652 22.8802C85.4831 22.5971 85.542 22.3011 85.542 21.9922L85.542 21.9922ZM78.3926 13.6335V18.2086H82.8315C83.1458 18.2086 83.4339 18.1475 83.6958 18.0252C83.9576 17.903 84.1835 17.7389 84.3734 17.533C84.5633 17.3271 84.7138 17.0857 84.8251 16.8091C84.9364 16.5324 84.9921 16.2396 84.9921 15.9307C84.9921 15.609 84.9397 15.3065 84.8349 15.0234C84.7302 14.7403 84.5894 14.4958 84.4127 14.2898C84.2359 14.0839 84.0198 13.9231 83.7645 13.8072C83.5091 13.6914 83.2374 13.6335 82.9494 13.6335H78.3926L78.3926 13.6335ZM91.1135 25.8338V12.1279H92.8813V24.2895H100.659V25.8338H91.1133H91.1135ZM113.361 24.2895V25.8338H103.894V12.1279H113.184V13.6722H105.661V18.1122H112.202V19.5601H105.661V24.2896H113.361L113.361 24.2895ZM117.086 25.8338V12.1279H118.854V24.2895H126.632V25.8338H117.086H117.086ZM139.334 24.2895V25.8338H129.866V12.1279H139.157V13.6722H131.634V18.1122H138.175V19.5601H131.634V24.2896H139.334L139.334 24.2895ZM151.25 15.0042C151.093 14.8241 150.883 14.6503 150.621 14.483C150.359 14.3157 150.065 14.1645 149.737 14.0294C149.41 13.8942 149.053 13.7848 148.667 13.7012C148.281 13.6175 147.878 13.5757 147.459 13.5757C146.372 13.5757 145.577 13.7752 145.073 14.1741C144.568 14.5731 144.316 15.12 144.316 15.815C144.316 16.1882 144.388 16.4971 144.532 16.7416C144.676 16.9861 144.902 17.1953 145.21 17.369C145.518 17.5427 145.901 17.6939 146.359 17.8226C146.817 17.9513 147.361 18.0865 147.989 18.228C148.71 18.3825 149.361 18.5594 149.944 18.7589C150.526 18.9584 151.024 19.2061 151.436 19.5021C151.849 19.7981 152.163 20.1585 152.379 20.5831C152.595 21.0078 152.703 21.529 152.703 22.1468C152.703 22.8032 152.572 23.3727 152.31 23.8553C152.049 24.3379 151.692 24.7368 151.24 25.0521C150.788 25.3674 150.255 25.5991 149.639 25.7471C149.024 25.8951 148.356 25.9691 147.636 25.9691C146.562 25.9691 145.544 25.805 144.582 25.4768C143.619 25.1486 142.745 24.6693 141.959 24.0387L142.804 22.5715C143.013 22.7903 143.285 23.0091 143.619 23.2279C143.953 23.4466 144.333 23.6429 144.758 23.8166C145.184 23.9904 145.642 24.1319 146.133 24.2413C146.624 24.3507 147.138 24.4054 147.675 24.4054C148.67 24.4054 149.443 24.2317 149.993 23.8842C150.543 23.5367 150.818 23.0155 150.818 22.3205C150.818 21.9344 150.729 21.6095 150.553 21.3457C150.376 21.0818 150.117 20.8534 149.777 20.6604C149.436 20.4673 149.014 20.2968 148.51 20.1488C148.006 20.0008 147.433 19.8496 146.791 19.6951C146.084 19.5278 145.462 19.3477 144.925 19.1546C144.388 18.9616 143.94 18.7299 143.58 18.4597C143.22 18.1894 142.948 17.8612 142.765 17.4751C142.581 17.089 142.49 16.6257 142.49 16.0852C142.49 15.4289 142.614 14.8498 142.863 14.3478C143.112 13.8459 143.459 13.4212 143.904 13.0737C144.349 12.7262 144.879 12.4656 145.495 12.2919C146.11 12.1181 146.778 12.0312 147.498 12.0312C148.441 12.0312 149.292 12.1728 150.052 12.4559C150.811 12.7391 151.485 13.1187 152.075 13.5949L151.25 15.0042L151.25 15.0042ZM164.52 15.0042C164.363 14.8241 164.154 14.6503 163.892 14.483C163.63 14.3157 163.335 14.1645 163.008 14.0294C162.681 13.8942 162.324 13.7848 161.938 13.7012C161.551 13.6175 161.149 13.5757 160.73 13.5757C159.643 13.5757 158.847 13.7752 158.343 14.1741C157.839 14.5731 157.587 15.12 157.587 15.815C157.587 16.1882 157.659 16.4971 157.803 16.7416C157.947 16.9861 158.173 17.1953 158.481 17.369C158.788 17.5427 159.171 17.6939 159.63 17.8226C160.088 17.9513 160.632 18.0865 161.26 18.228C161.98 18.3825 162.632 18.5594 163.214 18.7589C163.797 18.9584 164.295 19.2061 164.707 19.5021C165.12 19.7981 165.434 20.1585 165.65 20.5831C165.866 21.0078 165.974 21.529 165.974 22.1468C165.974 22.8032 165.843 23.3727 165.581 23.8553C165.319 24.3379 164.962 24.7368 164.511 25.0521C164.059 25.3674 163.525 25.5991 162.91 25.7471C162.294 25.8951 161.627 25.9691 160.906 25.9691C159.833 25.9691 158.815 25.805 157.852 25.4768C156.89 25.1486 156.016 24.6693 155.23 24.0387L156.075 22.5715C156.284 22.7903 156.556 23.0091 156.89 23.2279C157.224 23.4466 157.603 23.6429 158.029 23.8166C158.455 23.9904 158.913 24.1319 159.404 24.2413C159.895 24.3507 160.409 24.4054 160.946 24.4054C161.941 24.4054 162.713 24.2317 163.263 23.8842C163.813 23.5367 164.088 23.0155 164.088 22.3205C164.088 21.9344 164 21.6095 163.823 21.3457C163.646 21.0818 163.388 20.8534 163.047 20.6604C162.707 20.4673 162.285 20.2968 161.78 20.1488C161.276 20.0008 160.704 19.8496 160.062 19.6951C159.355 19.5278 158.733 19.3477 158.196 19.1546C157.659 18.9616 157.211 18.7299 156.85 18.4597C156.49 18.1894 156.219 17.8612 156.035 17.4751C155.852 17.089 155.76 16.6257 155.76 16.0852C155.76 15.4289 155.885 14.8498 156.133 14.3478C156.382 13.8459 156.729 13.4212 157.175 13.0737C157.62 12.7262 158.15 12.4656 158.766 12.2919C159.381 12.1181 160.049 12.0312 160.769 12.0312C161.712 12.0312 162.563 12.1728 163.322 12.4559C164.082 12.7391 164.756 13.1187 165.345 13.5949L164.521 15.0042L164.52 15.0042Z" fill="#282828" fill-opacity="0.9"/>
</svg>
