<svg width="144" height="30" viewBox="0 0 144 30" fill="none" xmlns="http://www.w3.org/2000/svg">
<path d="M40.3164 9.33082C40.3164 9.33082 41.504 10.6032 43.1629 10.6032C44.4729 10.6032 45.4249 9.8115 45.4249 8.72761C45.4249 7.39867 44.209 6.78605 42.7387 6.78605H41.8716L41.3532 5.61734L43.653 2.8935C44.1431 2.30915 44.5577 1.94157 44.5577 1.94157C44.5577 1.94157 44.1902 1.96042 43.4456 1.96042H39.7038V0H47.3664V1.43261L44.2938 4.98586C46.0281 5.23091 47.7245 6.4656 47.7245 8.64279C47.7245 10.7823 46.1035 12.7615 43.3043 12.7615C40.6369 12.7615 39.1572 11.0839 39.1572 11.0839L40.3164 9.33082Z" fill="#04AA6D"/>
<path d="M25.3683 11.9793L35.4909 30L40.4861 21.0934L30.9291 4.08111H19.8075L15.1986 12.2904L10.5898 4.08111H0.589844L15.1421 30L15.1986 29.9058L15.2553 30L25.3683 11.9793Z" fill="#04AA6D"/>
<path d="M56.4532 20.3488H59.211C59.211 21.1569 59.9137 21.9299 61.1609 21.9299C62.3203 21.9299 63.0932 21.35 63.0932 20.5771C63.0932 19.9097 62.5838 19.611 61.7055 19.4179L60.1245 19.0137C57.4544 18.3111 56.7693 16.8882 56.7693 15.3777C56.7693 13.5331 58.5962 11.8467 61.1785 11.8467C63.2864 11.8467 65.6754 12.9183 65.6403 15.5533H62.8473C62.8473 14.7452 62.1095 14.2357 61.2663 14.2357C60.3528 14.2357 59.7205 14.7627 59.7205 15.5004C59.7205 16.1154 60.3002 16.4667 60.9852 16.6247L62.8824 17.1342C65.5525 17.8193 66.0268 19.488 66.0268 20.5771C66.0268 22.9838 63.6202 24.3012 61.2136 24.3012C58.8773 24.3012 56.5059 22.8782 56.4532 20.3488Z" fill="#04AA6D"/>
<path d="M68.4687 18.0651C68.4687 14.306 71.4901 11.8467 74.9155 11.8467C76.9707 11.8467 78.6395 12.7601 79.7286 14.1304L77.6558 15.7816C77.041 15.0438 76.0397 14.587 74.9682 14.587C72.9129 14.587 71.4374 16.0626 71.4374 18.0651C71.4374 20.0501 72.9129 21.5609 74.9682 21.5609C76.0397 21.5609 77.041 21.1043 77.6558 20.3665L79.7286 22.0177C78.6395 23.3877 76.9707 24.3012 74.9155 24.3012C71.4901 24.3012 68.4687 21.8243 68.4687 18.0651Z" fill="#04AA6D"/>
<path d="M93.922 17.3452V23.9852H90.9709V17.556C90.9709 15.6588 89.8292 14.64 88.5118 14.64C87.159 14.64 85.4903 15.4305 85.4903 17.7316V24.0029H82.5392V5.69884H85.5078V13.9374C86.0876 12.4968 88.0023 11.8294 89.1792 11.8294C92.2356 11.8469 93.922 13.9023 93.922 17.3452Z" fill="#04AA6D"/>
<path d="M97.0136 18.0651C97.0136 14.306 99.9296 11.8467 103.302 11.8467C106.675 11.8467 109.626 14.306 109.626 18.0651C109.626 21.8243 106.675 24.3012 103.302 24.3012C99.9296 24.3012 97.0136 21.8243 97.0136 18.0651ZM106.657 18.0651C106.657 16.0276 105.129 14.587 103.302 14.587C101.475 14.587 99.9822 16.0276 99.9822 18.0651C99.9822 20.1379 101.475 21.5609 103.302 21.5609C105.129 21.5609 106.657 20.1379 106.657 18.0651Z" fill="#04AA6D"/>
<path d="M112.138 18.0651C112.138 14.306 115.054 11.8467 118.427 11.8467C121.799 11.8467 124.751 14.306 124.751 18.0651C124.751 21.8243 121.799 24.3012 118.427 24.3012C115.072 24.3012 112.138 21.8243 112.138 18.0651ZM121.782 18.0651C121.782 16.0276 120.254 14.587 118.427 14.587C116.6 14.587 115.107 16.0276 115.107 18.0651C115.107 20.1379 116.6 21.5609 118.427 21.5609C120.271 21.5609 121.782 20.1379 121.782 18.0651Z" fill="#04AA6D"/>
<path d="M128.018 24.0029V5.69884H130.969V24.0029H128.018Z" fill="#04AA6D"/>
<path d="M134.184 20.3488H136.942C136.942 21.1569 137.644 21.9299 138.891 21.9299C140.051 21.9299 140.824 21.35 140.824 20.5771C140.824 19.9097 140.314 19.611 139.436 19.4179L137.855 19.0137C135.185 18.3111 134.5 16.8882 134.5 15.3777C134.5 13.5331 136.327 11.8467 138.909 11.8467C141.017 11.8467 143.406 12.9183 143.371 15.5533H140.56C140.56 14.7452 139.823 14.2357 138.979 14.2357C138.066 14.2357 137.434 14.7627 137.434 15.5004C137.434 16.1154 138.013 16.4667 138.698 16.6247L140.596 17.1342C143.265 17.8193 143.74 19.488 143.74 20.5771C143.74 22.9838 141.333 24.3012 138.927 24.3012C136.59 24.3012 134.236 22.8782 134.184 20.3488Z" fill="#04AA6D"/>
</svg>
