<svg width="16" height="16" viewBox="0 0 16 16" fill="none" xmlns="http://www.w3.org/2000/svg">
<path d="M9.335 8.00751L15.23 2.10661C15.59 1.74625 15.59 1.14565 15.23 0.785285C14.87 0.424925 14.27 0.424925 13.91 0.785285L8 6.67117L2.105 0.77027C1.745 0.40991 1.145 0.40991 0.785 0.77027C0.425 1.13063 0.425 1.73123 0.785 2.09159L6.665 8.00751L0.77 13.9084C0.41 14.2688 0.41 14.8694 0.77 15.2297C0.95 15.4099 1.19 15.5 1.43 15.5C1.67 15.5 1.91 15.4099 2.09 15.2297L8 9.32883L13.895 15.2297C14.075 15.4099 14.315 15.5 14.555 15.5C14.795 15.5 15.035 15.4099 15.215 15.2297C15.575 14.8694 15.575 14.2688 15.215 13.9084L9.335 8.00751Z" fill="black"/>
</svg>
