<svg width="15" height="16" viewBox="0 0 15 16" fill="none" xmlns="http://www.w3.org/2000/svg">
<path d="M6.35919 0.500488C4.72967 0.500488 3.10128 1.1205 1.86164 2.36014C-0.617627 4.83941 -0.621999 8.88179 1.85724 11.3611C4.1575 13.6613 7.80491 13.8232 10.3 11.8551L13.7249 15.28C13.7942 15.3497 13.8767 15.405 13.9674 15.4428C14.0582 15.4805 14.1556 15.5 14.2539 15.5C14.3522 15.5 14.4496 15.4805 14.5404 15.4428C14.6312 15.405 14.7136 15.3497 14.783 15.28C14.922 15.1402 15 14.9511 15 14.7539C15 14.5567 14.922 14.3676 14.783 14.2278L11.3551 10.8C13.3241 8.30532 13.1589 4.66088 10.8582 2.36014C9.61853 1.1205 7.98871 0.500488 6.35919 0.500488ZM6.36068 1.98413C7.60502 1.98412 8.84859 2.46081 9.80307 3.4153C11.712 5.32426 11.7164 8.39694 9.80747 10.3059C7.89855 12.2148 4.82144 12.2148 2.91249 10.3059C1.00353 8.39694 1.00791 5.32426 2.9169 3.4153C3.87138 2.46081 5.11635 1.98413 6.36068 1.98413Z" fill="black"/>
</svg>
